<mxfile host="app.diagrams.net" modified="2021-09-03T09:58:39.757Z" agent="5.0 (Windows NT 10.0; Win64; x64) AppleWebKit/537.36 (KHTML, like Gecko) Chrome/92.0.4515.131 Safari/537.36" etag="l5mlfxOtn_L7PZ-Eso9B" version="15.0.6" type="github">
  <diagram id="hN4Z2FX1toccRKzgqC2r" name="Page-1">
    <mxGraphModel dx="868" dy="450" grid="1" gridSize="10" guides="1" tooltips="1" connect="1" arrows="1" fold="1" page="1" pageScale="1" pageWidth="850" pageHeight="1100" math="0" shadow="0">
      <root>
        <mxCell id="0" />
        <mxCell id="1" parent="0" />
        <mxCell id="Jt4SHQYq3mrkHA4pLqrm-1" value="Device" style="shape=process;whiteSpace=wrap;html=1;backgroundOutline=1;" vertex="1" parent="1">
          <mxGeometry x="30" y="80" width="120" height="60" as="geometry" />
        </mxCell>
        <mxCell id="Jt4SHQYq3mrkHA4pLqrm-4" value="Simulator" style="shape=umlActor;verticalLabelPosition=bottom;verticalAlign=top;html=1;outlineConnect=0;" vertex="1" parent="1">
          <mxGeometry x="50" y="200" width="30" height="60" as="geometry" />
        </mxCell>
        <mxCell id="Jt4SHQYq3mrkHA4pLqrm-13" value="JioUtils Event Topic" style="shape=cylinder3;whiteSpace=wrap;html=1;boundedLbl=1;backgroundOutline=1;size=15;" vertex="1" parent="1">
          <mxGeometry x="330" y="50" width="85" height="90" as="geometry" />
        </mxCell>
        <mxCell id="Jt4SHQYq3mrkHA4pLqrm-14" value="&lt;span&gt;JioUtils Alert Topic&lt;/span&gt;" style="shape=cylinder3;whiteSpace=wrap;html=1;boundedLbl=1;backgroundOutline=1;size=15;" vertex="1" parent="1">
          <mxGeometry x="330" y="190" width="85" height="90" as="geometry" />
        </mxCell>
        <mxCell id="Jt4SHQYq3mrkHA4pLqrm-17" value="Event" style="endArrow=classic;html=1;entryX=0;entryY=1;entryDx=0;entryDy=-15;entryPerimeter=0;" edge="1" parent="1">
          <mxGeometry relative="1" as="geometry">
            <mxPoint x="86" y="210" as="sourcePoint" />
            <mxPoint x="326" y="125" as="targetPoint" />
          </mxGeometry>
        </mxCell>
        <mxCell id="Jt4SHQYq3mrkHA4pLqrm-19" value="Alert" style="endArrow=classic;html=1;entryX=0;entryY=0;entryDx=0;entryDy=60;entryPerimeter=0;" edge="1" parent="1" target="Jt4SHQYq3mrkHA4pLqrm-14">
          <mxGeometry relative="1" as="geometry">
            <mxPoint x="90" y="250" as="sourcePoint" />
            <mxPoint x="320" y="240" as="targetPoint" />
          </mxGeometry>
        </mxCell>
        <mxCell id="Jt4SHQYq3mrkHA4pLqrm-21" value="Source" style="edgeLabel;resizable=0;html=1;align=left;verticalAlign=bottom;" connectable="0" vertex="1" parent="Jt4SHQYq3mrkHA4pLqrm-19">
          <mxGeometry x="-1" relative="1" as="geometry" />
        </mxCell>
        <mxCell id="Jt4SHQYq3mrkHA4pLqrm-24" value="Event" style="endArrow=classic;html=1;entryX=-0.047;entryY=0.433;entryDx=0;entryDy=0;entryPerimeter=0;exitX=1;exitY=0.25;exitDx=0;exitDy=0;" edge="1" parent="1" source="Jt4SHQYq3mrkHA4pLqrm-1" target="Jt4SHQYq3mrkHA4pLqrm-13">
          <mxGeometry relative="1" as="geometry">
            <mxPoint x="100" y="220" as="sourcePoint" />
            <mxPoint x="340" y="120" as="targetPoint" />
          </mxGeometry>
        </mxCell>
        <mxCell id="Jt4SHQYq3mrkHA4pLqrm-25" value="Alert" style="endArrow=classic;html=1;exitX=1.033;exitY=0.367;exitDx=0;exitDy=0;exitPerimeter=0;entryX=0.106;entryY=0.289;entryDx=0;entryDy=0;entryPerimeter=0;" edge="1" parent="1" source="Jt4SHQYq3mrkHA4pLqrm-1" target="Jt4SHQYq3mrkHA4pLqrm-14">
          <mxGeometry relative="1" as="geometry">
            <mxPoint x="100" y="220" as="sourcePoint" />
            <mxPoint x="340" y="210" as="targetPoint" />
          </mxGeometry>
        </mxCell>
        <mxCell id="Jt4SHQYq3mrkHA4pLqrm-26" value="Source" style="edgeLabel;resizable=0;html=1;align=left;verticalAlign=bottom;" connectable="0" vertex="1" parent="Jt4SHQYq3mrkHA4pLqrm-25">
          <mxGeometry x="-1" relative="1" as="geometry" />
        </mxCell>
        <mxCell id="Jt4SHQYq3mrkHA4pLqrm-27" value="" style="endArrow=none;html=1;" edge="1" parent="1">
          <mxGeometry width="50" height="50" relative="1" as="geometry">
            <mxPoint x="490" y="330" as="sourcePoint" />
            <mxPoint x="490" y="20" as="targetPoint" />
          </mxGeometry>
        </mxCell>
        <mxCell id="Jt4SHQYq3mrkHA4pLqrm-29" value="Data/Packet Source" style="shape=crossbar;whiteSpace=wrap;html=1;rounded=1;" vertex="1" parent="1">
          <mxGeometry x="40" y="380" width="400" height="20" as="geometry" />
        </mxCell>
        <mxCell id="Jt4SHQYq3mrkHA4pLqrm-31" value="Alert Collector" style="shape=display;whiteSpace=wrap;html=1;size=0.25;" vertex="1" parent="1">
          <mxGeometry x="560" y="215" width="80" height="40" as="geometry" />
        </mxCell>
        <mxCell id="Jt4SHQYq3mrkHA4pLqrm-32" value="Event Collector" style="shape=display;whiteSpace=wrap;html=1;size=0.25;" vertex="1" parent="1">
          <mxGeometry x="560" y="75" width="80" height="40" as="geometry" />
        </mxCell>
        <mxCell id="Jt4SHQYq3mrkHA4pLqrm-34" value="&lt;p style=&quot;margin: 0in ; font-family: &amp;quot;segoe ui&amp;quot; ; font-size: 10.5pt&quot;&gt;JIOUTILS_ASSETTWIN_EVENTS_COLLECTOR&lt;/p&gt;" style="text;whiteSpace=wrap;html=1;" vertex="1" parent="1">
          <mxGeometry x="510" y="140" width="290" height="30" as="geometry" />
        </mxCell>
        <mxCell id="Jt4SHQYq3mrkHA4pLqrm-35" value="&lt;p style=&quot;margin: 0in ; font-family: &amp;quot;segoe ui&amp;quot; ; font-size: 10.5pt&quot;&gt;JIOUTILS_ASSETTWIN_ALERTS_COLLECTOR&lt;/p&gt;" style="text;whiteSpace=wrap;html=1;" vertex="1" parent="1">
          <mxGeometry x="510" y="260" width="290" height="30" as="geometry" />
        </mxCell>
        <mxCell id="Jt4SHQYq3mrkHA4pLqrm-41" value="" style="endArrow=none;dashed=1;html=1;entryX=0;entryY=0.5;entryDx=0;entryDy=0;entryPerimeter=0;" edge="1" parent="1" source="Jt4SHQYq3mrkHA4pLqrm-13" target="Jt4SHQYq3mrkHA4pLqrm-32">
          <mxGeometry width="50" height="50" relative="1" as="geometry">
            <mxPoint x="390" y="240" as="sourcePoint" />
            <mxPoint x="440" y="190" as="targetPoint" />
          </mxGeometry>
        </mxCell>
        <mxCell id="Jt4SHQYq3mrkHA4pLqrm-42" value="" style="endArrow=none;dashed=1;html=1;entryX=0;entryY=0.5;entryDx=0;entryDy=0;entryPerimeter=0;exitX=1;exitY=0.5;exitDx=0;exitDy=0;exitPerimeter=0;" edge="1" parent="1" source="Jt4SHQYq3mrkHA4pLqrm-14" target="Jt4SHQYq3mrkHA4pLqrm-31">
          <mxGeometry width="50" height="50" relative="1" as="geometry">
            <mxPoint x="415" y="229.99999999999997" as="sourcePoint" />
            <mxPoint x="560" y="241.6" as="targetPoint" />
          </mxGeometry>
        </mxCell>
      </root>
    </mxGraphModel>
  </diagram>
</mxfile>
